<?xml version="1.0" encoding="utf-8"?>
<!-- Generator: Adobe Illustrator 28.2.0, SVG Export Plug-In . SVG Version: 6.00 Build 0)  -->
<svg version="1.1" id="Capa_1" xmlns="http://www.w3.org/2000/svg" xmlns:xlink="http://www.w3.org/1999/xlink" x="0px" y="0px"
	 viewBox="0 0 800 800" style="enable-background:new 0 0 800 800;" xml:space="preserve">
<g>
	<g>
		<path d="M443.3,194.9c-13.5,17.3-22.8,39.1-29.1,60.9c-0.2-22.7-3.1-46.2-11.4-66.7c-27.1-67.1-67.5-88.9-101.1-75.3
			c-33.5,13.5-47.7,57.2-20.5,124.4c8.3,20.4,22.5,39.3,38.2,55.8c-19.7-11.1-41.6-20.5-63.4-23.5c-71.6-10.1-110.7,14.1-115.8,49.9
			c-4.9,35.9,25.9,69.8,97.6,79.8c21.7,3.1,45.3,0.3,67.4-5.1c-19.7,11.4-38.6,25.8-52.1,43c-44.6,57.1-43.1,103-14.7,125.2
			c28.6,22.3,73.5,12.6,118-44.5c13.5-17.3,22.8-39,29.3-60.9c0.1,22.8,3.1,46.2,11.2,66.8c27.1,67.1,67.7,88.7,101.1,75.2
			c33.6-13.4,47.7-57.2,20.4-124.4c-8.3-20.3-22.4-39.3-38.1-55.8c19.8,11.2,41.6,20.5,63.4,23.6c71.6,10.1,110.8-14.1,115.9-49.9
			c4.9-35.9-25.9-69.9-97.7-80c-21.7-3.1-45.2-0.1-67.3,5.2c19.6-11.5,38.5-25.7,52-43.1c44.7-57,43.3-103,14.7-125.3
			C532.8,128,487.9,137.7,443.3,194.9z M451.8,364.2c-4,28.7-30.6,48.6-59.1,44.6c-28.8-4-48.8-30.5-44.7-59.2
			c4-28.7,30.5-48.6,59.2-44.6C435.8,309,455.9,335.5,451.8,364.2z"/>
	</g>
</g>
</svg>
